<svg width="111" height="38" xmlns="http://www.w3.org/2000/svg"><g fill="none" fill-rule="evenodd"><path d="M54.859 26c1.282 0 2.289-.39 3.02-1.17a3.925 3.925 0 001.097-2.78c0-.849-.264-1.626-.794-2.33-.53-.703-1.296-1.18-2.299-1.43l-5.079-1.212c-.362-.084-.637-.251-.826-.502a1.36 1.36 0 01-.282-.836c0-.348.133-.65.397-.909.265-.257.62-.386 1.066-.386h6.898V12h-7.044c-1.254 0-2.236.376-2.947 1.128A3.763 3.763 0 0047 15.803c0 .836.254 1.598.763 2.288.509.69 1.257 1.153 2.247 1.39l5.1 1.212c.376.083.669.26.878.532a1.414 1.414 0 01-.105 1.891c-.279.293-.655.44-1.129.44h-7.252V26h7.357zm8.988 0v-5.997h7.315V26h2.487V12h-2.487v5.58h-7.315V12h-2.509v14h2.509zm15.592 0V12H76.93v14h2.508zm5.79 0V15.469L93.067 26h2.508V12h-2.508v9.884L85.647 12H82.72v14h2.509zm20.044 0v-5.746L111 12h-2.905l-4.055 5.997L100.006 12h-2.968l5.727 8.358V26h2.508z" fill="#E0B300" fill-rule="nonzero"/><circle fill="#E0B300" cx="19" cy="19" r="19"/><path d="M26.268 11.005l-5.314 5.904-1.034-.93 3.223-3.583h-8.298L26.218 25.02 19 33.04l-7.217-8.02 2.794-3.105 1.035.93-1.958 2.175L19 30.959l5.344-5.939-12.626-14.015h14.55zm1.273-2.84l2.64 3.352-6.967 7.743-1.242-1.117L28 11.445l-1.268-1.61H11.269L10 11.445l12.221 13.58-3.226 3.574-3.211-3.58 1.177-1.308 1.242 1.117-.175.193.97 1.081.975-1.079L7.818 11.517l2.641-3.352h17.082zm3.51 4.68l2.858 3.629-6.735 7.484-1.035-.93 5.951-6.615-2.132-2.706 1.093-.861zm-23.973-.162l1.093.86-2.262 2.87 5.952 6.614-1.035.931-6.735-7.484 2.987-3.791zm2.397 2.219l1.113.836-.501.666 3.927 4.363-1.034.93-4.693-5.213 1.188-1.582zm18.998-.013l1.248 1.585-4.703 5.224-1.034-.931 3.918-4.354-.522-.663 1.093-.86z" fill="#000" fill-rule="nonzero"/></g></svg>