<svg width="25" height="20" viewBox="0 0 25 20" fill="none" xmlns="http://www.w3.org/2000/svg">
<path d="M9.03201 19.033L8.92501 18.935L1.05001 10.935C0.920191 10.8028 0.819081 10.6451 0.753009 10.472L0.703008 10.313L0.673009 10.129L0.667008 10L0.669009 9.915L0.681008 9.803L0.711009 9.656C0.746009 9.526 0.801009 9.403 0.871009 9.291L0.954009 9.172L1.05001 9.065L8.92501 1.065C9.16382 0.820492 9.48743 0.677056 9.82898 0.664328C10.1705 0.6516 10.5039 0.770552 10.7603 0.996608C11.0166 1.22266 11.1763 1.53855 11.2064 1.879C11.2365 2.21946 11.1347 2.55847 10.922 2.826L10.825 2.936L5.18401 8.667L23 8.667C23.3427 8.66657 23.6725 8.79816 23.9207 9.03446C24.169 9.27076 24.3167 9.59359 24.3331 9.93593C24.3496 10.2783 24.2336 10.6138 24.0092 10.8728C23.7848 11.1319 23.4692 11.2945 23.128 11.327L23 11.333L5.18501 11.334L10.825 17.064C11.0556 17.2982 11.1915 17.6093 11.2068 17.9376C11.2222 18.2659 11.1157 18.5883 10.908 18.843L10.81 18.95C10.5934 19.1633 10.3105 19.2962 10.0081 19.3267C9.70566 19.3573 9.40187 19.2837 9.14701 19.118L9.03201 19.033V19.033Z" fill="black"/>
</svg>
