<svg width="60" height="60" viewBox="0 0 60 60" fill="none" xmlns="http://www.w3.org/2000/svg">
<path d="M41 28.6667C41.7364 28.6667 42.3333 29.2636 42.3333 30C42.3333 30.7364 41.7364 31.3333 41 31.3333V28.6667ZM20 31.3333C19.2636 31.3333 18.6667 30.7364 18.6667 30C18.6667 29.2636 19.2636 28.6667 20 28.6667V31.3333ZM26.9248 21.0646C27.4414 20.5399 28.2856 20.5332 28.8104 21.0498C29.3351 21.5664 29.3418 22.4106 28.8252 22.9354L26.9248 21.0646ZM20 30L19.0498 30.9354C18.539 30.4164 18.539 29.5836 19.0498 29.0646L20 30ZM28.8252 37.0646C29.3418 37.5894 29.3351 38.4336 28.8104 38.9502C28.2856 39.4668 27.4414 39.4601 26.9248 38.9354L28.8252 37.0646ZM41 31.3333H20V28.6667H41V31.3333ZM28.8252 22.9354L20.9502 30.9354L19.0498 29.0646L26.9248 21.0646L28.8252 22.9354ZM20.9502 29.0646L28.8252 37.0646L26.9248 38.9354L19.0498 30.9354L20.9502 29.0646Z" fill="black"/>
</svg>
