<svg width="24" height="24" xmlns="http://www.w3.org/2000/svg"><path d="M18.952 0c1.347 0 2.617.526 3.57 1.479A5.021 5.021 0 0124 5.049v13.903A5.053 5.053 0 0118.952 24H5.048A5.053 5.053 0 010 18.952V5.048c0-1.347.526-2.617 1.479-3.57A5.021 5.021 0 015.049 0zm0 1.846H5.048c-.857 0-1.658.332-2.264.938a3.175 3.175 0 00-.938 2.264v13.904a3.207 3.207 0 003.202 3.202h13.904a3.207 3.207 0 003.202-3.202V5.048c0-.857-.332-1.658-.938-2.264a3.175 3.175 0 00-2.264-.938zm-.695 15.762a.65.65 0 010 1.298H5.743a.65.65 0 010-1.298h12.514zM12 5.094c.172 0 .337.069.459.19l3.44 3.441a.649.649 0 11-.917.918L12.649 7.31v6.924a.649.649 0 11-1.298 0V7.31L9.018 9.643a.647.647 0 01-.918 0 .65.65 0 010-.917l3.441-3.442a.65.65 0 01.459-.19z" fill="#E0B300" fill-rule="nonzero"/></svg>