<svg width="24" height="24" xmlns="http://www.w3.org/2000/svg"><g fill="#E0B300" fill-rule="nonzero"><path d="M15.75 7.5a.752.752 0 01-.75-.75c0-.412.338-.75.75-.75h1.5a.75.75 0 000-1.5h-.75v-.75a.75.75 0 00-1.5 0v.888a2.246 2.246 0 00-1.5 2.112C13.5 7.99 14.51 9 15.75 9c.413 0 .75.338.75.75 0 .075-.014.15-.042.246a.75.75 0 101.437.436A2.253 2.253 0 0015.75 7.5z"/><path d="M15.75 0a8.28 8.28 0 00-7.588 4.98c-.164.38.01.822.39.987a.758.758 0 00.987-.39A6.775 6.775 0 0115.75 1.5a6.758 6.758 0 016.75 6.75c0 2.695-1.6 5.134-4.078 6.211a.753.753 0 00-.39.987.754.754 0 00.986.39A8.279 8.279 0 0024 8.25C24 3.702 20.298 0 15.75 0zM8.25 15a.752.752 0 01-.75-.75c0-.412.338-.75.75-.75h1.5a.75.75 0 000-1.5H9v-.75a.75.75 0 00-1.5 0v.888A2.246 2.246 0 006 14.25c0 1.24 1.01 2.25 2.25 2.25.412 0 .75.337.75.75s-.338.75-.75.75h-1.5a.75.75 0 000 1.5h.75v.75a.75.75 0 001.5 0v-.888a2.246 2.246 0 001.5-2.112c0-1.24-1.01-2.25-2.25-2.25z"/><path d="M8.25 7.5C3.702 7.5 0 11.202 0 15.75S3.702 24 8.25 24s8.25-3.702 8.25-8.25S12.798 7.5 8.25 7.5zm0 15a6.758 6.758 0 01-6.75-6.75A6.758 6.758 0 018.25 9 6.758 6.758 0 0115 15.75a6.758 6.758 0 01-6.75 6.75z"/></g></svg>