<svg width="24" height="24" xmlns="http://www.w3.org/2000/svg"><path d="M22.071.642C21.094.243 19.814.023 18.47.023c-1.346 0-2.625.22-3.603.62-1.495.61-1.857 1.456-1.918 2.005h-.01v7.584a12.08 12.08 0 00-1.876 0V6.398h-.01c-.061-.549-.423-1.396-1.918-2.006-.978-.399-2.257-.619-3.603-.619-1.345 0-2.625.22-3.602.62C.25 5.076 0 6.06 0 6.585v11.062c0 .526.25 1.51 1.929 2.194.977.4 2.257.619 3.602.619.319 0 .633-.013.941-.037.034.544.352 1.448 1.925 2.09.978.4 2.257.619 3.603.619s2.625-.22 3.603-.619c1.678-.685 1.928-1.668 1.928-2.194v-.036c.307.024.62.036.938.036 1.345 0 2.625-.22 3.602-.618C23.75 19.017 24 18.033 24 17.508V2.836c0-.525-.25-1.509-1.929-2.194zM18.47 1.898c2.167 0 3.417.635 3.637.938-.22.302-1.47.937-3.637.937s-3.418-.635-3.638-.937c.22-.303 1.47-.938 3.638-.938zm-6.47 10.172c2.167 0 3.417.635 3.638.937l-.005.008a.393.393 0 01-.058.063.829.829 0 01-.039.034l-.02.016-.025.02-.022.016-.03.02-.024.017a1.79 1.79 0 01-.033.021l-.027.017-.038.022-.029.017-.042.023-.03.017-.05.025-.029.015-.064.03-.02.01-.092.04-.019.008-.078.032-.036.014-.067.025-.044.016-.066.023-.048.016-.067.022-.052.017-.07.02-.055.017a6.104 6.104 0 01-.072.02l-.06.015a6.727 6.727 0 01-.073.02l-.063.015a7.499 7.499 0 01-.863.154l-.078.01-.097.01-.08.008-.102.01-.081.006-.108.007-.08.006-.118.005-.077.004-.133.004-.067.001a10.99 10.99 0 01-.412 0l-.067-.001-.133-.004-.077-.004-.117-.005-.081-.006-.108-.007-.081-.007-.102-.009-.08-.008-.097-.01-.078-.01a9.512 9.512 0 01-.49-.075 8.152 8.152 0 01-.51-.114l-.06-.015a6.104 6.104 0 01-.07-.02l-.057-.016a5.346 5.346 0 01-.07-.021l-.051-.017-.067-.022-.048-.016-.066-.023-.044-.016-.067-.025-.036-.014a3.992 3.992 0 01-.079-.032l-.018-.008a3.79 3.79 0 01-.092-.04l-.02-.01a3.231 3.231 0 01-.064-.03l-.03-.015-.049-.025-.03-.017-.042-.023-.03-.017-.037-.022c-.01-.005-.018-.011-.027-.017l-.033-.02-.025-.018a1.544 1.544 0 01-.135-.106.731.731 0 01-.058-.063l-.005-.008c.22-.302 1.47-.937 3.637-.937zM5.532 5.648c2.167 0 3.418.635 3.638.938-.22.302-1.47.937-3.638.937-2.167 0-3.417-.635-3.637-.937.22-.303 1.47-.938 3.637-.938zm.938 12.895a10.12 10.12 0 01-.938.043c-2.24 0-3.501-.679-3.656-.967V16.21l.054.023c.977.399 2.257.619 3.602.619.318 0 .63-.013.938-.037v1.728zm0-5.395v1.785a10.12 10.12 0 01-.938.044c-2.245 0-3.505-.682-3.656-.969V12.46l.054.023c.977.399 2.257.619 3.602.619.318 0 .632-.013.939-.037 0 .027.002.055.005.083h-.006zm-.938-1.921c-2.245 0-3.505-.682-3.656-.969V8.757l.054.023c.977.399 2.257.618 3.602.618 1.346 0 2.625-.22 3.603-.618l.053-.023v1.501c-.15.287-1.41.969-3.656.969zm10.125 9.064c-.155.288-1.415.967-3.656.967s-3.501-.68-3.656-.967v-1.503l.053.023c.978.399 2.257.619 3.603.619s2.625-.22 3.603-.619l.053-.023v1.503zm0-3.705c-.15.288-1.41.969-3.656.969-2.245 0-3.505-.681-3.656-.969V15.18l.053.023c.978.399 2.257.618 3.603.618s2.625-.22 3.603-.618l.053-.023v1.407zm6.469.892c-.155.288-1.415.967-3.656.967-.32 0-.633-.015-.938-.043v-1.727c.308.024.62.036.938.036 1.345 0 2.625-.22 3.602-.619.019-.007.036-.015.054-.023v1.41zm0-3.61c-.151.287-1.411.968-3.656.968-.32 0-.633-.015-.938-.043v-1.645h-.006c.003-.028.004-.056.005-.083.307.024.621.037.939.037 1.345 0 2.625-.22 3.602-.62l.054-.022v1.407zm0-3.61c-.151.287-1.411.969-3.656.969s-3.505-.682-3.657-.969V8.71l.054.023c.978.399 2.257.619 3.603.619 1.345 0 2.625-.22 3.602-.62l.054-.022v1.548zm0-3.75c-.151.287-1.411.969-3.656.969s-3.505-.682-3.657-.969V5.007l.054.023c.978.399 2.257.618 3.603.618 1.345 0 2.625-.22 3.602-.618l.054-.023v1.501z" fill="#E0B300" fill-rule="nonzero"/></svg>