<svg width="24" height="24" xmlns="http://www.w3.org/2000/svg"><path d="M21.16 12.4l2.72 5.2.002.002c.01.007.012.01.015.015l.003.003c.1.17.13.37.07.57 0 .02 0 .03-.01.05l-.03.07c-.01.02-.01.03-.02.04l-.02.03-2.73 5.22c-.13.24-.38.4-.66.4s-.53-.16-.66-.4l-2.73-5.22-.02-.03c-.01-.01-.01-.02-.02-.04a.564.564 0 01-.04-.12c-.06-.2-.03-.42.09-.59l2.72-5.2c.25-.49 1.07-.49 1.32 0zm.42 7.18l-.77.35c-.1.05-.21.07-.31.07s-.21-.02-.31-.07l-.77-.35 1.08 2.05 1.08-2.05zm-1.08-5.21l-1.72 3.28 1.72.78 1.72-.78-1.72-3.28zM0 2.5l.007-.1L0 2.5C0 .18 5.722.011 6.868 0h.264C8.25.012 13.73.173 13.99 2.339l.007.118L14 2.5v4l-.007-.102L14 6.5v4l-.008.149L14 10.5v4c0 2.375-5.998 2.496-6.942 2.5H7c-.72 0-7-.07-7-2.5v-12zm12.52 9.66c-1.832.781-4.799.837-5.457.84H7c-.49 0-3.6-.03-5.5-.83v2.33c.22.3 2.27 1 5.5 1s5.28-.7 5.52-1.09v-2.25zM7 11.5c3.197 0 5.247-.689 5.51-1.079l-.001-2.261-.207.084c-1.84.701-4.615.753-5.24.756H7c-.473 0-3.381-.028-5.292-.747L1.5 8.17v2.33c.22.3 2.27 1 5.5 1zm5.5-7.33c-1.832.771-4.79.827-5.438.83H7c-.473 0-3.381-.028-5.292-.747L1.5 4.17V6.5c.22.3 2.27 1 5.5 1 3.177 0 5.217-.679 5.51-1.069v-.003L12.5 4.17zM7 1.5c-2.99 0-4.96.6-5.44 1 .48.4 2.45 1 5.44 1s4.97-.6 5.44-1c-.47-.4-2.45-1-5.44-1z" fill="#E0B300" fill-rule="nonzero"/></svg>