<svg width="24" height="24" xmlns="http://www.w3.org/2000/svg"><path d="M12 0l.324.004a11.999 11.999 0 0110.363 6.532l.13.261A11.948 11.948 0 0124 12a12.037 12.037 0 01-.455 3.285c-.135.473-.298.936-.488 1.387l-.118.268-.187.395-.065.129a12.001 12.001 0 01-10.396 6.532l-.303.004-.312-.004a11.998 11.998 0 01-10.22-6.264l-.143-.268a12.179 12.179 0 01-.48-1.064A11.937 11.937 0 010 12a12.037 12.037 0 01.833-4.4c.107-.272.224-.54.35-.803l.13-.26A11.998 11.998 0 0112 0zm.287 1.853l-.3-.004H12a10.149 10.149 0 00-9.041 5.53l-.11.22a10.085 10.085 0 00-1 4.401 10.187 10.187 0 00.704 3.722c.09.23.19.456.296.678l.11.22a10.147 10.147 0 008.452 5.515l.302.012.287.004c3.851 0 7.316-2.163 9.041-5.53l.11-.22a10.135 10.135 0 00.74-2.108c.172-.746.26-1.513.26-2.293a10.187 10.187 0 00-.385-2.78 10.07 10.07 0 00-.616-1.62l-.11-.22a10.147 10.147 0 00-8.451-5.514l-.302-.013zM5.869 12L12 3.949 18.132 12 12 20.051 5.87 12zM12 7.001l-3.806 4.998 3.806 5 3.807-5-3.807-4.998z" fill="#E0B300" fill-rule="nonzero"/></svg>