<svg width="24" height="24" xmlns="http://www.w3.org/2000/svg"><g fill="#E0B300" fill-rule="nonzero"><path d="M12 0c6.627 0 12 5.373 12 12s-5.373 12-12 12S0 18.627 0 12 5.373 0 12 0zm0 2C6.477 2 2 6.477 2 12s4.477 10 10 10 10-4.477 10-10S17.523 2 12 2z"/><path d="M9.366 11c.044 0 .08-.013.108-.039a.136.136 0 00.042-.105v-.408a.136.136 0 00-.042-.105.152.152 0 00-.108-.039H7.35V9.218h1.836c.044 0 .08-.013.108-.039a.136.136 0 00.042-.105v-.378a.146.146 0 00-.042-.108.146.146 0 00-.108-.042H7.35v-1.05h1.968c.044 0 .08-.013.108-.039a.136.136 0 00.042-.105V6.95a.146.146 0 00-.042-.108.146.146 0 00-.108-.042H6.672a.136.136 0 00-.105.042.152.152 0 00-.039.108v3.906c0 .04.014.074.042.102a.139.139 0 00.102.042h2.694zm1.596 0c.044 0 .08-.014.108-.042a.139.139 0 00.042-.102v-1.44h.822l.768 1.422c.028.048.06.087.096.117.036.03.086.045.15.045h.552a.125.125 0 00.087-.036.117.117 0 00.039-.09.15.15 0 00-.018-.066l-.87-1.53c.252-.088.448-.231.588-.429.14-.198.21-.443.21-.735 0-.42-.139-.744-.417-.972-.278-.228-.663-.342-1.155-.342H10.41a.136.136 0 00-.105.042.152.152 0 00-.039.108v3.906c0 .04.014.074.042.102a.139.139 0 00.102.042h.552zm.984-2.268h-.834v-1.26h.834c.24 0 .42.055.54.165.12.11.18.267.18.471 0 .204-.06.359-.18.465-.12.106-.3.159-.54.159zm3.972 2.328c.356 0 .666-.061.93-.183s.469-.289.615-.501c.146-.212.223-.45.231-.714a.1.1 0 00-.033-.09.132.132 0 00-.093-.036h-.582c-.048 0-.084.011-.108.033a.253.253 0 00-.06.117c-.06.248-.165.423-.315.525-.15.102-.345.153-.585.153-.572 0-.87-.32-.894-.96-.002-.07-.004-.159-.005-.267v-.484c0-.107.003-.192.005-.257.024-.64.322-.96.894-.96.244 0 .44.051.588.153.148.102.252.277.312.525a.253.253 0 00.06.117c.024.022.06.033.108.033h.582a.131.131 0 00.087-.033.102.102 0 00.039-.081v-.012a1.302 1.302 0 00-.231-.714 1.479 1.479 0 00-.615-.501 2.198 2.198 0 00-.93-.183c-.548 0-.974.143-1.278.429-.304.286-.466.685-.486 1.197-.002.067-.004.159-.005.275v.525c0 .114.003.203.005.268.02.52.181.921.483 1.203.302.282.729.423 1.281.423zM11.177 18c.066 0 .12-.02.162-.058a.205.205 0 00.063-.158v-.648a.22.22 0 00-.063-.162.22.22 0 00-.162-.063H8.63l1.25-1.269c.474-.372.824-.721 1.049-1.048.225-.327.338-.692.338-1.094a1.91 1.91 0 00-.252-.981 1.727 1.727 0 00-.757-.68c-.335-.165-.743-.247-1.223-.247-.463 0-.864.095-1.207.284a2.035 2.035 0 00-1.08 1.741.183.183 0 00.19.189h.81a.3.3 0 00.166-.05.25.25 0 00.104-.157 1.22 1.22 0 01.319-.688c.171-.178.406-.266.707-.266.306 0 .534.081.683.243.15.162.226.384.226.666a.99.99 0 01-.171.531c-.114.18-.287.376-.518.59-.231.212-.56.487-.986.823l-1.404 1.395a.514.514 0 00-.224.423v.468c0 .06.02.111.063.153a.208.208 0 00.152.063h4.312zm3.609.09c.803 0 1.402-.222 1.795-.666.393-.444.608-1.026.643-1.746.012-.324.018-.6.018-.828 0-.228-.006-.51-.018-.846-.03-.708-.245-1.284-.648-1.728-.402-.444-.998-.666-1.79-.666-.793 0-1.39.222-1.791.666-.402.444-.618 1.02-.648 1.728-.006.168-.01.45-.01.846v.186c.002.293.005.507.01.642.036.72.25 1.302.643 1.746.393.444.992.666 1.796.666zm0-1.053c-.372 0-.652-.121-.838-.364-.186-.243-.284-.59-.296-1.04a25.642 25.642 0 01-.01-.801v-.172c.002-.272.005-.476.01-.611.012-.438.11-.78.296-1.026s.466-.372.838-.378c.372.006.65.132.837.378.186.246.285.588.296 1.026.006.162.01.423.01.783v.172c-.002.274-.005.484-.01.629-.011.45-.11.797-.296 1.04s-.465.364-.837.364z"/></g></svg>