<svg width="24" height="21" xmlns="http://www.w3.org/2000/svg"><path d="M21.043 3.715h-7.596c-.308 0-.61-.126-.818-.342L10.26.877a3.004 3.004 0 00-2.138-.86H2.957A2.96 2.96 0 000 2.974V17.37a2.96 2.96 0 002.957 2.957h18.1A2.96 2.96 0 0024 17.361V6.672a2.96 2.96 0 00-2.957-2.957zm1.148 13.65a1.15 1.15 0 01-1.139 1.154H2.957A1.15 1.15 0 011.81 17.37V2.974c0-.633.515-1.149 1.148-1.15H8.174c.302 0 .595.12.792.316l2.358 2.485a2.971 2.971 0 002.123.899h7.596a1.15 1.15 0 011.148 1.148v10.693z" fill="#E0B300" fill-rule="nonzero"/></svg>