<svg width="33" height="27" xmlns="http://www.w3.org/2000/svg"><path d="M33 3.198c-1.216.54-2.52.908-3.89 1.071A6.81 6.81 0 0032.085.496a13.507 13.507 0 01-4.298 1.656A6.743 6.743 0 0022.843 0c-3.736 0-6.769 3.055-6.769 6.818 0 .536.06 1.056.177 1.552-5.627-.282-10.614-3-13.952-7.125a6.835 6.835 0 00-.916 3.426 6.821 6.821 0 003.013 5.673A6.718 6.718 0 011.33 9.49v.084c0 3.303 2.334 6.06 5.43 6.685a6.74 6.74 0 01-3.057.114c.862 2.707 3.363 4.68 6.322 4.735a13.517 13.517 0 01-8.41 2.92c-.546 0-1.082-.034-1.614-.093A19.059 19.059 0 0010.378 27c12.45 0 19.26-10.388 19.26-19.398 0-.298-.005-.59-.02-.883a13.747 13.747 0 003.377-3.53l.005.01z" fill="#E0B300" fill-rule="evenodd"/></svg>