<svg width="36" height="26" xmlns="http://www.w3.org/2000/svg"><path d="M18.31 0c.953.004 3.842.024 6.778.135l.653.026c2.607.11 5.142.296 6.278.61a4.552 4.552 0 013.187 3.222c1.189 4.842.914 12.488.023 17.516a4.552 4.552 0 01-3.187 3.223c-2.556.705-12.192.765-13.807.77h-.46c-1.615-.005-11.25-.065-13.808-.77a4.552 4.552 0 01-3.186-3.223C-.415 16.689-.087 9.038.758 4.017A4.552 4.552 0 013.944.794C6.501.088 16.137.009 17.752 0zm-3.907 7.286v10.93l9.328-5.465-9.328-5.465z" fill="#E0B300" fill-rule="nonzero"/></svg>