<svg width="1002" height="360" viewBox="0 0 1002 360" fill="none" xmlns="http://www.w3.org/2000/svg">
<path fill-rule="evenodd" clip-rule="evenodd" d="M170 1H983.759C993.281 1 1001 8.71923 1001 18.2414V156.259C1001 165.781 993.281 173.5 983.759 173.5H18.2414C8.71927 173.5 1 181.219 1 190.741V328.759C1 338.281 8.71923 346 18.2414 346H743" fill="white"/>
<path d="M170 1H983.759C993.281 1 1001 8.71923 1001 18.2414V156.259C1001 165.781 993.281 173.5 983.759 173.5H18.2414C8.71927 173.5 1 181.219 1 190.741V328.759C1 338.281 8.71923 346 18.2414 346H743" stroke="#E0B300" stroke-width="2"/>
<mask id="path-3-outside-1_60:2" maskUnits="userSpaceOnUse" x="729" y="332" width="28" height="28" fill="black">
<rect fill="white" x="729" y="332" width="28" height="28"/>
<path fill-rule="evenodd" clip-rule="evenodd" d="M755 346C755 339.373 749.627 334 743 334C736.373 334 731 339.373 731 346C731 352.627 736.373 358 743 358H752.909C754.064 358 755 357.064 755 355.909V346Z"/>
</mask>
<path fill-rule="evenodd" clip-rule="evenodd" d="M755 346C755 339.373 749.627 334 743 334C736.373 334 731 339.373 731 346C731 352.627 736.373 358 743 358H752.909C754.064 358 755 357.064 755 355.909V346Z" fill="white"/>
<path d="M743 336C748.523 336 753 340.477 753 346H757C757 338.268 750.732 332 743 332V336ZM733 346C733 340.477 737.477 336 743 336V332C735.268 332 729 338.268 729 346H733ZM743 356C737.477 356 733 351.523 733 346H729C729 353.732 735.268 360 743 360V356ZM752.909 356H743V360H752.909V356ZM753 355.909C753 355.959 752.959 356 752.909 356V360C755.168 360 757 358.168 757 355.909H753ZM753 346V355.909H757V346H753Z" fill="#E0B300" mask="url(#path-3-outside-1_60:2)"/>
</svg>
